<?xml version="1.0" encoding="utf-8"?>
<!-- Generator: Adobe Illustrator 24.0.0, SVG Export Plug-In . SVG Version: 6.00 Build 0)  -->
<svg version="1.1" xmlns="http://www.w3.org/2000/svg" xmlns:xlink="http://www.w3.org/1999/xlink" x="0px" y="0px"
	 viewBox="0 0 64 64" enable-background="new 0 0 64 64" xml:space="preserve">
<g id="Captions">
</g>
<g id="Icons">
	<g>
		<g>
			<path fill="#FA6450" d="M28,34l-13.404,5.027C13.034,39.612,12,41.105,12,42.772V60h40v-2.868l-2,1.2l-7.145-4.287
				C39.86,52.249,38,48.963,38,45.471V34.75L36,34l-4,4L28,34z"/>
		</g>
		<g>
			<polygon fill="#DC4632" points="31,37 31,60 33,60 33,37 32,38 			"/>
		</g>
		<g>
			<path fill="#DC4632" d="M18.596,39.027l10.495-3.936L28,34l-13.404,5.027C13.034,39.612,12,41.105,12,42.772V60h4V42.772
				C16,41.105,17.034,39.612,18.596,39.027z"/>
		</g>
		<g>
			<polygon fill="#D2AA82" points="36,34 36,28 28,28 28,34 32,38 			"/>
		</g>
		<g>
			<path fill="#F0C8A0" d="M42,16h-2v-4.187c0-2.234-1.829-4.034-4.062-4l-8,0.125C25.753,7.973,24,9.753,24,11.938V16h-2
				c-1.105,0-2,0.895-2,2v0.764c0,0.758,0.428,1.45,1.106,1.789L24,22v2.343c0,1.061,0.421,2.078,1.172,2.828l1.657,1.657
				c0.75,0.75,1.768,1.172,2.828,1.172h4.686c1.061,0,2.078-0.421,2.828-1.172l1.657-1.657c0.75-0.75,1.172-1.768,1.172-2.828V22
				l2.894-1.447C43.572,20.214,44,19.522,44,18.764V18C44,16.895,43.105,16,42,16z"/>
		</g>
		<g>
			<path fill="#BE7800" d="M30,18.5h-4c-0.276,0-0.5-0.224-0.5-0.5s0.224-0.5,0.5-0.5h4c0.276,0,0.5,0.224,0.5,0.5
				S30.276,18.5,30,18.5z"/>
		</g>
		<g>
			<path fill="#BE7800" d="M32,25.671c-0.668,0-1.295-0.26-1.768-0.732l-0.586-0.586c-0.195-0.195-0.195-0.512,0-0.707
				s0.512-0.195,0.707,0l0.586,0.586c0.585,0.585,1.536,0.585,2.121,0l0.586-0.586c0.195-0.195,0.512-0.195,0.707,0
				s0.195,0.512,0,0.707l-0.586,0.586C33.295,25.412,32.668,25.671,32,25.671z"/>
		</g>
		<g>
			<circle fill="#BE7800" cx="29" cy="19" r="1"/>
		</g>
		<g>
			<path fill="#BE7800" d="M38,18.5h-4c-0.276,0-0.5-0.224-0.5-0.5s0.224-0.5,0.5-0.5h4c0.276,0,0.5,0.224,0.5,0.5
				S38.276,18.5,38,18.5z"/>
		</g>
		<g>
			<circle fill="#BE7800" cx="35" cy="19" r="1"/>
		</g>
		<g>
			<path fill="#DC9600" d="M42,18L42,18c-2.209,0-4-1.791-4-4V8h2c1.105,0,2,0.895,2,2V18z"/>
		</g>
		<g>
			<path fill="#FAB400" d="M22,14v-2c0-4.418,3.582-8,8-8h6c2.209,0,4,1.791,4,4v0c0,1.259-0.593,2.445-1.6,3.2l-3.2,2.4
				C33.123,15.158,30.596,16,28,16l-4,0C22.895,16,22,15.105,22,14z"/>
		</g>
		<g>
			<path fill="#3CC8B4" d="M40,32h4.111c1.242,0,2.467-0.289,3.578-0.845L50,30l2.311,1.155C53.422,31.711,54.647,32,55.889,32H60
				v13.47c0,2.81-1.474,5.414-3.884,6.86L50,56l-6.116-3.67C41.474,50.885,40,48.281,40,45.47V32z"/>
		</g>
		<g>
			<path fill="#1EAA96" d="M45.884,52.33C43.474,50.885,42,48.281,42,45.47V32h-2v13.47c0,2.81,1.474,5.414,3.884,6.86L50,56l1-0.6
				L45.884,52.33z"/>
		</g>
		<g>
			<path fill="#FAB400" d="M54,50h-8c-1.105,0-2-0.895-2-2v-6c0-1.105,0.895-2,2-2h8c1.105,0,2,0.895,2,2v6
				C56,49.105,55.105,50,54,50z"/>
		</g>
		<g>
			<path fill="#DC9600" d="M46,48v-6c0-1.105,0.895-2,2-2h-2c-1.105,0-2,0.895-2,2v6c0,1.105,0.895,2,2,2h2
				C46.895,50,46,49.105,46,48z"/>
		</g>
		<g>
			<path fill="#505050" d="M47,40v-3c0-1.105,0.895-2,2-2h2c1.105,0,2,0.895,2,2v3h1v-3c0-1.657-1.343-3-3-3h-2
				c-1.657,0-3,1.343-3,3v3H47z"/>
		</g>
		<g>
			<path fill="#BE7800" d="M52,44c0-1.105-0.895-2-2-2s-2,0.895-2,2c0,0.738,0.405,1.376,1,1.723V47c0,0.552,0.448,1,1,1
				s1-0.448,1-1v-1.277C51.595,45.376,52,44.738,52,44z"/>
		</g>
		<g>
			<polygon fill="#BE2814" points="28,34 28,42 32,38 			"/>
		</g>
		<g>
			<polygon fill="#BE2814" points="36,34 36,42 32,38 			"/>
		</g>
		<g>
			<circle fill="#BE2814" cx="32" cy="57" r="1"/>
		</g>
		<g>
			<circle fill="#BE2814" cx="32" cy="51" r="1"/>
		</g>
		<g>
			<circle fill="#BE2814" cx="32" cy="45" r="1"/>
		</g>
	</g>
</g>
</svg>
